HIERARCHY
ROOT Hips
{
    OFFSET   0.000000   0.000000   0.000000
    CHANNELS 6 Xposition Yposition Zposition Zrotation Xrotation Yrotation
    JOINT Chest
    {
        OFFSET   0.000000   8.007230   0.000000
        CHANNELS 3 Zrotation Xrotation Yrotation
        JOINT Chest2
        {
            OFFSET   0.000000  22.077100   0.000000
            CHANNELS 3 Zrotation Xrotation Yrotation
            JOINT Neck
            {
                OFFSET   0.000000  23.254800  -0.000021
                CHANNELS 3 Zrotation Xrotation Yrotation
                JOINT Head
                {
                    OFFSET   0.000000  14.370000   1.956610
                    CHANNELS 3 Zrotation Xrotation Yrotation
                    End Site
                    {
                        OFFSET   0.000000  19.566000   0.000000
                    }
                }
            }
            JOINT LeftCollar
            {
                OFFSET   3.911900  19.017000  -0.467063
                CHANNELS 3 Zrotation Xrotation Yrotation
                JOINT LeftShoulder
                {
                    OFFSET  10.383700   0.000000   0.000000
                    CHANNELS 3 Zrotation Xrotation Yrotation
                    JOINT LeftElbow
                    {
                        OFFSET  26.662100   0.001529   0.000325
                        CHANNELS 3 Zrotation Xrotation Yrotation
                        JOINT LeftWrist
                        {
                            OFFSET  28.869000  -0.000011  -0.000096
                            CHANNELS 3 Zrotation Xrotation Yrotation
                            JOINT LeftFinger0
                            {
                                OFFSET   2.044650  -2.323460   3.252850
                                CHANNELS 3 Zrotation Xrotation Yrotation
                                JOINT LeftFinger01
                                {
                                    OFFSET   3.088130   0.000000   0.000000
                                    CHANNELS 3 Zrotation Xrotation Yrotation
                                    JOINT LeftFinger02
                                    {
                                        OFFSET   2.639460   0.000000   0.000000
                                        CHANNELS 3 Zrotation Xrotation Yrotation
                                        End Site
                                        {
                                            OFFSET   2.582190   0.000000   0.000000
                                        }
                                    }
                                }
                            }
                            JOINT LeftFinger1
                            {
                                OFFSET   8.364480   0.000000   3.252850
                                CHANNELS 3 Zrotation Xrotation Yrotation
                                JOINT LeftFinger11
                                {
                                    OFFSET   4.646930   0.000000   0.000000
                                    CHANNELS 3 Zrotation Xrotation Yrotation
                                    JOINT LeftFinger12
                                    {
                                        OFFSET   2.323460   0.000000   0.000000
                                        CHANNELS 3 Zrotation Xrotation Yrotation
                                        End Site
                                        {
                                            OFFSET   2.273050   0.000000   0.000000
                                        }
                                    }
                                }
                            }
                            JOINT LeftFinger2
                            {
                                OFFSET   8.364480   0.000016   1.078090
                                CHANNELS 3 Zrotation Xrotation Yrotation
                                JOINT LeftFinger21
                                {
                                    OFFSET   5.111620   0.000000   0.000000
                                    CHANNELS 3 Zrotation Xrotation Yrotation
                                    JOINT LeftFinger22
                                    {
                                        OFFSET   2.788160   0.000017   0.000000
                                        CHANNELS 3 Zrotation Xrotation Yrotation
                                        End Site
                                        {
                                            OFFSET   2.727660   0.000000   0.000000
                                        }
                                    }
                                }
                            }
                            JOINT LeftFinger3
                            {
                                OFFSET   7.899780   0.000015  -1.078090
                                CHANNELS 3 Zrotation Xrotation Yrotation
                                JOINT LeftFinger31
                                {
                                    OFFSET   4.646920   0.000000   0.000000
                                    CHANNELS 3 Zrotation Xrotation Yrotation
                                    JOINT LeftFinger32
                                    {
                                        OFFSET   2.323470   0.000000   0.000000
                                        CHANNELS 3 Zrotation Xrotation Yrotation
                                        End Site
                                        {
                                            OFFSET   2.273050   0.000000   0.000000
                                        }
                                    }
                                }
                            }
                            JOINT LeftFinger4
                            {
                                OFFSET   7.435090   0.000000  -3.252850
                                CHANNELS 3 Zrotation Xrotation Yrotation
                                JOINT LeftFinger41
                                {
                                    OFFSET   3.717550   0.000000   0.000000
                                    CHANNELS 3 Zrotation Xrotation Yrotation
                                    JOINT LeftFinger42
                                    {
                                        OFFSET   1.858760   0.000000   0.000000
                                        CHANNELS 3 Zrotation Xrotation Yrotation
                                        End Site
                                        {
                                            OFFSET   1.818440   0.000000   0.000000
                                        }
                                    }
                                }
                            }
                        }
                    }
                }
            }
            JOINT RightCollar
            {
                OFFSET  -3.911900  19.017000  -0.467062
                CHANNELS 3 Zrotation Xrotation Yrotation
                JOINT RightShoulder
                {
                    OFFSET -10.383700   0.000015   0.000000
                    CHANNELS 3 Zrotation Xrotation Yrotation
                    JOINT RightElbow
                    {
                        OFFSET -26.662100   0.001341   0.000385
                        CHANNELS 3 Zrotation Xrotation Yrotation
                        JOINT RightWrist
                        {
                            OFFSET -28.869000   0.000025  -0.000080
                            CHANNELS 3 Zrotation Xrotation Yrotation
                            JOINT RightFinger0
                            {
                                OFFSET  -2.044650  -2.323490   3.252850
                                CHANNELS 3 Zrotation Xrotation Yrotation
                                JOINT RightFinger01
                                {
                                    OFFSET  -3.088130   0.000000   0.000000
                                    CHANNELS 3 Zrotation Xrotation Yrotation
                                    JOINT RightFinger02
                                    {
                                        OFFSET  -2.639460   0.000000   0.000000
                                        CHANNELS 3 Zrotation Xrotation Yrotation
                                        End Site
                                        {
                                            OFFSET  -2.582190   0.000000   0.000000
                                        }
                                    }
                                }
                            }
                            JOINT RightFinger1
                            {
                                OFFSET  -8.364480   0.000000   3.252850
                                CHANNELS 3 Zrotation Xrotation Yrotation
                                JOINT RightFinger11
                                {
                                    OFFSET  -4.646930   0.000000   0.000000
                                    CHANNELS 3 Zrotation Xrotation Yrotation
                                    JOINT RightFinger12
                                    {
                                        OFFSET  -2.323470   0.000000   0.000000
                                        CHANNELS 3 Zrotation Xrotation Yrotation
                                        End Site
                                        {
                                            OFFSET  -2.273050   0.000000   0.000000
                                        }
                                    }
                                }
                            }
                            JOINT RightFinger2
                            {
                                OFFSET  -8.364480   0.000000   1.078090
                                CHANNELS 3 Zrotation Xrotation Yrotation
                                JOINT RightFinger21
                                {
                                    OFFSET  -5.111610   0.000000   0.000000
                                    CHANNELS 3 Zrotation Xrotation Yrotation
                                    JOINT RightFinger22
                                    {
                                        OFFSET  -2.788160   0.000000   0.000000
                                        CHANNELS 3 Zrotation Xrotation Yrotation
                                        End Site
                                        {
                                            OFFSET  -2.727660   0.000000   0.000000
                                        }
                                    }
                                }
                            }
                            JOINT RightFinger3
                            {
                                OFFSET  -7.899780   0.000000  -1.078090
                                CHANNELS 3 Zrotation Xrotation Yrotation
                                JOINT RightFinger31
                                {
                                    OFFSET  -4.646920   0.000000   0.000000
                                    CHANNELS 3 Zrotation Xrotation Yrotation
                                    JOINT RightFinger32
                                    {
                                        OFFSET  -2.323470   0.000000   0.000000
                                        CHANNELS 3 Zrotation Xrotation Yrotation
                                        End Site
                                        {
                                            OFFSET  -2.273050   0.000000   0.000000
                                        }
                                    }
                                }
                            }
                            JOINT RightFinger4
                            {
                                OFFSET  -7.435090   0.000000  -3.252850
                                CHANNELS 3 Zrotation Xrotation Yrotation
                                JOINT RightFinger41
                                {
                                    OFFSET  -3.717550   0.000000   0.000000
                                    CHANNELS 3 Zrotation Xrotation Yrotation
                                    JOINT RightFinger42
                                    {
                                        OFFSET  -1.858770   0.000000   0.000000
                                        CHANNELS 3 Zrotation Xrotation Yrotation
                                        End Site
                                        {
                                            OFFSET  -1.818440   0.000000   0.000000
                                        }
                                    }
                                }
                            }
                        }
                    }
                }
            }
        }
    }
    JOINT LeftHip
    {
        OFFSET   9.783010   0.000000   0.000000
        CHANNELS 3 Zrotation Xrotation Yrotation
        JOINT LeftKnee
        {
            OFFSET   0.000070 -41.789100   0.000028
            CHANNELS 3 Zrotation Xrotation Yrotation
            JOINT LeftAnkle
            {
                OFFSET   0.000087 -41.133200  -0.000100
                CHANNELS 3 Zrotation Xrotation Yrotation
                JOINT LeftToe
                {
                    OFFSET   0.000000  -6.358960  14.674500
                    CHANNELS 3 Zrotation Xrotation Yrotation
                    End Site
                    {
                        OFFSET   0.000000   0.000000   3.913200
                    }
                }
            }
        }
    }
    JOINT RightHip
    {
        OFFSET  -9.783020   0.000000   0.000000
        CHANNELS 3 Zrotation Xrotation Yrotation
        JOINT RightKnee
        {
            OFFSET   0.000044 -41.789100  -0.000870
            CHANNELS 3 Zrotation Xrotation Yrotation
            JOINT RightAnkle
            {
                OFFSET  -0.000090 -41.133200  -0.000245
                CHANNELS 3 Zrotation Xrotation Yrotation
                JOINT RightToe
                {
                    OFFSET   0.000000  -6.358960  14.674500
                    CHANNELS 3 Zrotation Xrotation Yrotation
                    End Site
                    {
                        OFFSET   0.000000   0.000000   3.913200
                    }
                }
            }
        }
    }
}
MOTION
Frames: 5
Frame Time:   0.016667
 -0.025582  90.051200   2.093870  -1.841070  -7.273230  -0.836099  -0.167586   4.822400   0.574688  -0.385774   9.642880   1.169830   1.410890  -3.917390   0.096115   2.347070  -7.929280   4.944890  -3.247890  -2.708370   2.032500 -71.252900  23.301700   0.215283  -4.332270  -7.899830 -14.229300  14.913900   0.493240   8.987440  40.342700  27.851600 -67.383100 -18.241400   0.032843   0.029145  -4.120730   0.016333   0.014689 -25.270200   7.233980 -14.935800 -21.452500   0.017584   0.007754 -15.016800   0.011965  -0.004692 -28.954500   3.605650  -6.485360 -43.737900   0.022295   0.014841 -29.129500   0.012177   0.013041 -27.771600   3.471360  -6.558020 -31.826200   0.020127   0.008282 -21.196200   0.012854  -0.004110 -32.089000   0.863754  -1.376480 -48.149000   0.035101   0.024342 -32.067300   0.017746   0.022040   8.461120  -1.178970   8.937650  39.703500  22.307300  65.142500  -5.874590 -13.870500 103.269000 -43.809300  27.959300  39.849900 -37.505500  44.972100  80.059300  47.954000  -0.004462   0.004210  22.626600  -0.007529   0.000443  -2.927250   0.148613  -2.908260  -0.000000  -0.000867  -0.002887  -0.000000  -0.000618  -0.002239  88.998500  -2.911630  -0.048528  95.633300   0.000677  -0.000153  71.724900   0.000089   0.000349  88.996700  -4.998990  -0.088182  91.366900  -0.008504  -0.001106  68.525200  -0.003627   0.004288  88.985600  -9.992980  -0.170497 110.000000   0.000000  -0.000415  80.000000  -0.004622  -0.000923   1.089060   7.693860   1.771580   0.620663   0.620669  13.353600  -4.496520  -3.174420   5.110940   0.000000   0.000000  -0.000000   4.001530   6.251040  -9.227600  -1.724890   4.278640 -11.772400  -9.226920   0.085809  -0.203420  -0.000000   0.000000   0.000000
 -0.037318  90.051100   2.110540  -1.841550  -7.266500  -0.840718  -0.166902   4.799990   0.562019  -0.383279   9.598110   1.144180   1.401230  -3.875140   0.094740   2.331760  -7.843990   4.976730  -3.251160  -2.690030   2.067970 -71.298400  23.274700   0.244667  -4.316320  -7.868070 -14.229300  14.935500   0.504192   9.001210  40.335800  27.874500 -67.414700 -18.263800   0.031611   0.029539  -4.131950   0.015700   0.014883 -25.262800   7.229110 -14.931000 -21.445700   0.018503   0.006995 -15.012000   0.012374  -0.004902 -28.948100   3.604330  -6.484130 -43.728500   0.020971   0.012428 -29.123200   0.011693   0.011288 -27.767100   3.470650  -6.556710 -31.810100   0.015316   0.005013 -21.185500   0.009628  -0.004737 -32.078400   0.865645  -1.379910 -48.133200   0.035372   0.023651 -32.056700   0.017938   0.021942   8.446860  -1.163100   8.965690  39.721600  22.302700  65.233700  -5.828810 -13.948400 103.227000 -43.695900  27.875000  39.858100 -37.778900  45.215100  80.430300  47.781500  -0.004538   0.004214  22.434000  -0.007622   0.000438  -2.909090   0.144273  -2.848180  -0.000000  -0.000892  -0.002900  -0.000000  -0.000606  -0.002237  88.998600  -2.851410  -0.048893  95.608800   0.000668  -0.000140  71.706600   0.000076   0.000378  88.996800  -4.999010  -0.088344  91.411900  -0.008587  -0.001220  68.558900  -0.003610   0.004323  88.985600  -9.992880  -0.170450 110.000000  -0.000000  -0.000404  80.000000  -0.004557  -0.000907   1.092070   7.698520   1.777830   0.620620   0.626871  13.346700  -4.497850  -3.190160   5.116460  -0.000000   0.000000  -0.000000   4.012940   6.258620  -9.231270  -1.722680   4.267610 -11.767900  -9.233000   0.079632  -0.201058   0.000000   0.000000   0.000000
 -0.049466  90.051000   2.127060  -1.841270  -7.261490  -0.839089  -0.167318   4.782090   0.554453  -0.383284   9.562340   1.128910   1.391090  -3.832460   0.094217   2.314160  -7.757830   5.007360  -3.253100  -2.686840   2.069130 -71.332500  23.264300   0.273419  -4.299820  -7.845520 -14.211100  14.944400   0.506693   9.009470  40.293100  27.850900 -67.416600 -18.293900   0.013920   0.014344  -4.146950   0.006908   0.007174 -25.282500   7.237950 -14.935600 -21.463000   0.012283   0.005470 -15.024100   0.008314  -0.005095 -28.957400   3.607370  -6.487090 -43.742800   0.007373   0.002929 -29.132600   0.004671   0.003044 -27.766700   3.472620  -6.560140 -31.827600   0.003215   0.000368 -21.197200   0.002042  -0.005315 -32.088300   0.863038  -1.376900 -48.148000   0.015451   0.009378 -32.066600   0.008034   0.009119   8.436160  -1.153580   8.973090  39.723400  22.297400  65.332400  -5.763510 -14.058300 103.189000 -43.718800  27.846200  40.023800 -37.994300  45.396700  80.722200  47.639800  -0.004605   0.004216  22.275800  -0.007714   0.000441  -2.919100   0.140422  -2.760380  -0.000000  -0.000916  -0.002910  -0.000000  -0.000590  -0.002234  88.998600  -2.763530  -0.049280  95.628800   0.000660  -0.000123  71.721500   0.000032   0.000409  88.996800  -4.999020  -0.088511  91.394400  -0.008666  -0.001336  68.545800  -0.003595   0.004357  88.985600  -9.992780  -0.170412 110.000000   0.000000  -0.000398  80.000000  -0.004489  -0.000889   1.094700   7.711780   1.776940   0.620461   0.624647  13.347100  -4.501750  -3.203540   5.115940  -0.000000   0.000000   0.000000   4.020260   6.270580  -9.229300  -1.716160   4.255020 -11.775200  -9.238930   0.070948  -0.199871   0.000000   0.000000   0.000000
 -0.062086  90.050900   2.144080  -1.840650  -7.255970  -0.834700  -0.168234   4.765020   0.546834  -0.384296   9.528220   1.113580   1.380680  -3.789500   0.093964   2.296090  -7.671090   5.035840  -3.257580  -2.684960   2.070300 -71.353900  23.262800   0.299660  -4.284600  -7.835410 -14.182600  14.947000   0.508205   9.013330  40.269500  27.828700 -67.417000 -18.313400  -0.002716  -0.000851  -4.156710  -0.001362  -0.000546 -25.312300   7.251920 -14.943800 -21.489300   0.003709   0.003493 -15.042500   0.002624  -0.005265 -28.966300   3.612660  -6.494170 -43.757000  -0.005090  -0.004503 -29.142100  -0.001936  -0.003697 -27.765900   3.476690  -6.567740 -31.845100  -0.005503  -0.002694 -21.208800  -0.003380  -0.005836 -32.098300   0.858937  -1.373900 -48.162800  -0.004470  -0.004303 -32.076500  -0.001977  -0.003619   8.426360  -1.142470   8.978820  39.697400  22.290200  65.447500  -5.708740 -14.162200 103.128000 -43.778500  27.810300  40.209000 -38.112300  45.493200  80.881900  47.561000  -0.004669   0.004217  22.187700  -0.007807   0.000444  -2.928940   0.138369  -2.702160  -0.000000  -0.000939  -0.002918  -0.000000  -0.000570  -0.002229  88.998600  -2.705270  -0.049671  95.682400   0.000652  -0.000105  71.761800   0.000000   0.000438  88.996800  -4.999030  -0.088678  91.376900  -0.008746  -0.001454  68.532700  -0.003582   0.004390  88.985600  -9.992670  -0.170373 110.000000   0.000000  -0.000392  80.000000  -0.004418  -0.000869   1.098580   7.725870   1.774040   0.620276   0.622416  13.349700  -4.507220  -3.215640   5.112330   0.000000   0.000000   0.000000   4.026300   6.282810  -9.227330  -1.708200   4.242350 -11.782500  -9.244830   0.061740  -0.199701   0.000000   0.000000   0.000000
 -0.076071  90.050800   2.161730  -1.839640  -7.248550  -0.827429  -0.169620   4.747710   0.536223  -0.386008   9.493630   1.092260   1.371930  -3.746880   0.093597   2.281080  -7.584910   5.054570  -3.275780  -2.679480   2.080100 -71.359400  23.266600   0.319972  -4.277050  -7.844200 -14.163000  14.931900   0.514707   9.006380  40.278000  27.835600 -67.416000 -18.299600  -0.002556  -0.000795  -4.149810  -0.001384  -0.000558 -25.330600   7.261800 -14.951300 -21.505700   0.001513   0.001222 -15.054000   0.000159  -0.005405 -28.956000   3.616140  -6.503140 -43.742000  -0.005009   0.002287 -29.132200  -0.001875   0.001373 -27.765300   3.480740  -6.576360 -31.825600   0.001065   0.002870 -21.195800  -0.003331  -0.006294 -32.089700   0.856155  -1.376870 -48.149900   0.001157   0.005479 -32.067800  -0.002085   0.003518   8.416040  -1.122090   8.995440  39.610100  22.278100  65.596200  -5.712810 -14.242100 103.041000 -43.805200  27.777300  40.281000 -38.033500  45.438200  80.776800  47.629900  -0.004733   0.004211  22.264200  -0.007907   0.000437  -2.860360   0.139145  -2.777050  -0.000000  -0.000960  -0.002925  -0.000000  -0.000547  -0.002219  88.998600  -2.780070  -0.049873  95.797300   0.000646  -0.000091  71.848000   0.000000   0.000466  88.996800  -4.999040  -0.088836  91.520000  -0.008829  -0.001575  68.640000  -0.003573   0.004422  88.985600  -9.992580  -0.170323 110.000000   0.000000  -0.000385  80.000000  -0.004341  -0.000843   1.106780   7.735750   1.767000   0.620190   0.622924  13.359300  -4.514050  -3.227350   5.103610   0.000000   0.000000  -0.000000   4.032200   6.291880  -9.228570  -1.699820   4.231350 -11.781200  -9.251170   0.053052  -0.204293  -0.000000   0.000000   0.000000
